<?xml version="1.0" encoding="UTF-8"?>
<svg width="75px" height="75px" viewBox="0 0 75 75" version="1.1" xmlns="http://www.w3.org/2000/svg" xmlns:xlink="http://www.w3.org/1999/xlink">
    <!-- Generator: Sketch 42 (36781) - http://www.bohemiancoding.com/sketch -->
    <title>Page 1</title>
    <desc>Created with Sketch.</desc>
    <defs></defs>
    <g id="Page-2" stroke="none" stroke-width="1" fill="none" fill-rule="evenodd">
        <path d="M37.5,0 C16.844,0 0,16.844 0,37.5 C0,58.156 16.844,75 37.5,75 C58.156,75 75,58.156 75,37.5 C75,16.844 58.316,0 37.5,0 Z M37.5,68.645 C20.34,68.645 6.355,54.82 6.355,37.5 C6.355,20.18 20.34,6.355 37.5,6.355 C54.66,6.355 68.645,20.34 68.645,37.5 C68.645,54.82 54.82,68.645 37.5,68.645 Z M40.836,22.406 L55.613,37.184 L40.043,52.754 L35.594,48.305 L43.062,40.836 L20.816,40.836 L20.816,34.48 L43.855,34.48 L36.387,27.012 L40.836,22.406 Z" id="Page-1" fill="#FF0000" transform="translate(37.500000, 37.500000) rotate(-90.000000) translate(-37.500000, -37.500000) "></path>
    </g>
</svg>